<?xml version="1.0" encoding="UTF-8" standalone="no"?>
<!DOCTYPE svg PUBLIC "-//W3C//DTD SVG 1.1//EN" "http://www.w3.org/Graphics/SVG/1.1/DTD/svg11.dtd">
<svg width="35px" height="35px" version="1.1" xmlns="http://www.w3.org/2000/svg" xmlns:xlink="http://www.w3.org/1999/xlink" xml:space="preserve" xmlns:serif="http://www.serif.com/" style="fill-rule:evenodd;clip-rule:evenodd;stroke-miterlimit:1.41421;">
    <g id="Page-1" serif:id="Page 1" transform="matrix(0.0149352,0,0,0.0149352,8.61521,12.9636)">
        <g id="Triangle-1" serif:id="Triangle 1" transform="matrix(1.91542,-0.39081,0.39081,1.91542,-642.295,-222.2)">
            <path d="M806.513,298.594L11.964,298.594L1177.82,11.674L806.513,298.594Z"/>
        </g>
        <g id="Triangle-1-copy" serif:id="Triangle 1 copy" transform="matrix(1.91542,-0.39081,0.39081,1.91542,-642.295,-222.2)">
            <path d="M796.755,313.005L29.774,313.005L860.789,454"/>
        </g>
        <g id="Rectangle-1-copy" serif:id="Rectangle 1 copy" transform="matrix(1.91542,-0.39081,0.39081,1.91542,-642.295,-222.2)">
            <path d="M290.16,573.739C290.498,562.107 298.973,552.794 309.369,552.794L384.636,552.794C386.359,551.348 388.327,550.206 390.498,549.457L409.914,542.766C410.861,539.206 412.286,535.841 414.116,532.745C412.665,529.535 411.576,526.189 410.913,522.764L408.502,510.302C406.974,510.341 405.43,510.321 403.875,510.24C373.997,508.674 350.955,484.928 352.408,457.202C353.861,429.475 379.259,408.268 409.137,409.834C416.392,410.214 423.244,411.902 429.441,414.638L472.289,313.694L496.441,313.321L450.007,430.396C457.217,439.461 461.237,450.788 460.603,462.872C460.425,466.275 459.886,469.579 459.023,472.755L754.719,500.638L754.759,500.642C759.101,499.305 763.827,498.571 768.771,498.571C789.583,498.571 806.535,511.578 807.216,527.824L842.198,566.659C856.977,583.065 851.058,596.116 828.966,595.795L825.609,595.746C807.766,595.486 784.82,586.6 768.847,574.556C762.921,577.408 756.24,578.866 749.267,578.519L623.531,572.253C618.432,576.874 611.38,579.791 602.915,580.228L448.516,588.191C441.268,588.565 434.47,586.982 428.61,583.903L402.299,592.971C402.061,593.053 401.822,593.13 401.583,593.201C399.414,594.159 397.052,594.684 394.583,594.684L309.369,594.684C298.968,594.684 290.498,585.369 290.16,573.739C290.153,573.978 290.15,574.219 290.15,574.46L290.15,573.018C290.15,573.259 290.153,573.5 290.16,573.739Z" style="stroke:rgb(254,255,255);stroke-width:10px;"/>
        </g>
        <g transform="matrix(130.11,-0.999083,1.00505,130.888,-590.409,-933.881)">
            <rect x="0.043" y="14.833" width="17.934" height="0.345"/>
        </g>
    </g>
</svg>
